<svg version="1.0" xmlns="http://www.w3.org/2000/svg" width="682.667" height="682.667" viewBox="0 0 812 512"><g fill="rgba(255,255,255,0.849)"><path d="M248.5 49.9c-5.6 3-7.8 6.5-8.3 13.1-.3 4.5 0 6.1 2 8.9 4.4 6.5 6.5 7.4 20 8.2 20 1.3 34.2 3.8 47.9 8.4 12.1 4.2 18.6 2.8 24.3-4.8 3-4.1 2.9-13-.2-17.5-3-4.1-5.4-5.4-19.3-9.6-14.8-4.4-33.1-7.5-49.4-8.2-11.9-.5-13.3-.4-17 1.5zM162.1 70.5c-21 10.3-52.3 34.1-56.5 42.9-4.5 9.5.8 20.3 11 22.6 6.3 1.4 10.6-.6 20.4-9.5 11.7-10.6 22.5-18.3 37.2-26.4 9.3-5.1 12-7.1 13.7-10.1 5.6-10-.7-22.5-12-23.7-3.7-.4-5.9.3-13.8 4.2zM384.4 105.4c-1.7.8-4 2.6-5.2 4.1-2.4 3-4.5 9.5-3.8 11.6.2.8.7 2.6 1 4.1.3 1.4 4.3 6.7 8.8 11.6 10.6 11.5 17.9 21.7 26.3 36.8 8 14.4 11.1 17 19.7 16.2 6.1-.6 9.6-3.1 12.6-8.8 3-6 2.8-8.3-1.7-17.6-10.4-21.5-34.5-53.5-43.6-57.8-4-1.9-9.9-2-14.1-.2zM202.7 166.4c-4.9 1.8-6.4 3.2-8.8 7.8-1.9 3.7-1.9 6.3-1.7 85.7.3 81 .3 82 2.4 84.7 3.8 5.2 7.1 6.9 13.2 6.9h5.7l66.5-39.9c36.5-22 67.5-41.1 68.7-42.4 5.1-5.5 5.4-14.6.7-20.2-3.5-4.1-134.8-82.7-139.4-83.4-1.9-.3-5.2 0-7.3.8zm64 68.8c31.8 18.9 38.3 23.2 37.2 24.3-1.6 1.4-78.4 47.5-79.3 47.5-.3 0-.6-21.8-.6-48.5v-48.6l2.1 1.2c1.2.6 19.5 11.4 40.6 24.1zM67 177.3c-4.6 3-6.3 6.3-10.3 19.7-5.1 16.6-7.9 34.8-8.1 51.2-.1 15.2.4 16.8 7.5 21.6 2.8 2 4.3 2.3 8.7 2 5.6-.5 9.1-2.5 12.6-7.1 1.6-2.2 2.1-5.1 2.8-15.9 1.1-17.2 3.2-29.5 7.5-43.8 3.9-13 4-18.7.5-23.7-4.5-6.3-14.9-8.3-21.2-4zM440 242.2c-6.5 4.5-7.3 6.5-8.2 21-1 17.1-3.2 29.5-7.4 43.5-1.9 6.2-3.4 13.2-3.4 15.5 0 13.7 16.8 20.2 26.6 10.4 7.4-7.4 16.4-48.3 16.4-74 0-8.5-2.6-13.9-8-16.7-4.9-2.6-11.9-2.5-16 .3zM75.2 323.7c-6 2.9-10.1 10.9-8.6 17 2 8.1 15.2 30.2 26.4 44.2 16.6 20.5 22.1 24.5 30.9 22.1 7.5-2 12.1-7.8 12.1-15.4 0-5.5-1.4-7.9-10-17.3-9-9.8-19.3-24.4-26.3-37.3-2.6-4.8-5.7-9.6-6.9-10.7-4.7-4.4-11.8-5.5-17.6-2.6zM385.4 377.4c-1.8.8-6.8 4.7-11.2 8.8-10.4 9.6-21.2 17.2-34.7 24.6-14.5 8-15 8.4-17 13.6-4 10.4 3.8 21.5 15.1 21.6 6.2 0 29.7-13.2 46.1-25.9 14.2-11 21.9-19 23.2-23.9 3.5-13-9.2-24.1-21.5-18.8zM182.2 423c-9.8 6-9.7 21.3.3 27.1 5 2.9 25.2 8.6 39 10.9 8.5 1.5 17.7 2.3 26.7 2.4 14.9.1 16.5-.4 21.2-6.8 2.9-3.9 2.9-13.3 0-17.2-4.4-6-6.4-6.7-20.6-7.6-17.1-1-29.5-3.2-43.5-7.4-13-3.9-18.4-4.2-23.1-1.4z"/></g></svg>