<?xml version="1.0" standalone="no"?>
<!DOCTYPE svg PUBLIC "-//W3C//DTD SVG 20010904//EN" "http://www.w3.org/TR/2001/REC-SVG-20010904/DTD/svg10.dtd">
<svg version="1.0" xmlns="http://www.w3.org/2000/svg" width="512.000000pt" height="512.000000pt"
    viewBox="0 0 812.000000 512.000000" preserveAspectRatio="xMidYMid meet">

    <g transform="translate(0.000000,512.000000) scale(0.100000,-0.100000)" fill="rgba(255,255,255,0.849)"
        stroke="none">
        <path d="M2485 4621 c-56 -30 -78 -65 -83 -131 -3 -45 0 -61 20 -89 44 -65 65
-74 200 -82 200 -13 342 -38 479 -84 121 -42 186 -28 243 48 30 41 29 130 -2
175 -30 41 -54 54 -193 96 -148 44 -331 75 -494 82 -119 5 -133 4 -170 -15z" />
        <path d="M1621 4415 c-210 -103 -523 -341 -565 -429 -45 -95 8 -203 110 -226
63 -14 106 6 204 95 117 106 225 183 372 264 93 51 120 71 137 101 56 100 -7
225 -120 237 -37 4 -59 -3 -138 -42z" />
        <path d="M3844 4066 c-17 -8 -40 -26 -52 -41 -24 -30 -45 -95 -38 -116 2 -8 7
-26 10 -41 3 -14 43 -67 88 -116 106 -115 179 -217 263 -368 80 -144 111 -170
197 -162 61 6 96 31 126 88 30 60 28 83 -17 176 -104 215 -345 535 -436 578
-40 19 -99 20 -141 2z" />
        <path d="M2027 3456 c-49 -18 -64 -32 -88 -78 -19 -37 -19 -63 -17 -857 3
-810 3 -820 24 -847 38 -52 71 -69 132 -69 l57 0 665 399 c365 220 675 411
687 424 51 55 54 146 7 202 -35 41 -1348 827 -1394 834 -19 3 -52 0 -73 -8z
m640 -688 c318 -189 383 -232 372 -243 -16 -14 -784 -475 -793 -475 -3 0 -6
218 -6 485 l0 486 21 -12 c12 -6 195 -114 406 -241z" />
        <path d="M670 3347 c-46 -30 -63 -63 -103 -197 -51 -166 -79 -348 -81 -512 -1
-152 4 -168 75 -216 28 -20 43 -23 87 -20 56 5 91 25 126 71 16 22 21 51 28
159 11 172 32 295 75 438 39 130 40 187 5 237 -45 63 -149 83 -212 40z" />
        <path d="M4400 2698 c-65 -45 -73 -65 -82 -210 -10 -171 -32 -295 -74 -435
-19 -62 -34 -132 -34 -155 0 -137 168 -202 266 -104 74 74 164 483 164 740 0
85 -26 139 -80 167 -49 26 -119 25 -160 -3z" />
        <path d="M752 1883 c-60 -29 -101 -109 -86 -170 20 -81 152 -302 264 -442 166
-205 221 -245 309 -221 75 20 121 78 121 154 0 55 -14 79 -100 173 -90 98
-193 244 -263 373 -26 48 -57 96 -69 107 -47 44 -118 55 -176 26z" />
        <path d="M3854 1346 c-18 -8 -68 -47 -112 -88 -104 -96 -212 -172 -347 -246
-145 -80 -150 -84 -170 -136 -40 -104 38 -215 151 -216 62 0 297 132 461 259
142 110 219 190 232 239 35 130 -92 241 -215 188z" />
        <path d="M1822 890 c-98 -60 -97 -213 3 -271 50 -29 252 -86 390 -109 85 -15
177 -23 267 -24 149 -1 165 4 212 68 29 39 29 133 0 172 -44 60 -64 67 -206
76 -171 10 -295 32 -435 74 -130 39 -184 42 -231 14z" />
    </g>
</svg>